<svg xmlns="http://www.w3.org/2000/svg" width="180" height="60" viewBox="0 0 180 60">
  <!-- Fondo sutil -->
  <rect width="180" height="60" fill="none"/>
  
  <!-- Barras decorativas -->
  <!-- Barra 1 -->
  <rect x="10" y="35" width="8" height="20" rx="4" fill="#e0e7ff" opacity="0.7"/>
  <!-- Barra 2 -->
  <rect x="22" y="25" width="8" height="30" rx="4" fill="#ddd6fe" opacity="0.8"/>
  <!-- Barra 3 -->
  <rect x="34" y="30" width="8" height="25" rx="4" fill="#c4b5fd" opacity="0.6"/>
  <!-- Barra 4 -->
  <rect x="46" y="20" width="8" height="35" rx="4" fill="#a78bfa" opacity="0.7"/>
  <!-- Barra 5 -->
  <rect x="58" y="15" width="8" height="40" rx="4" fill="#8b5cf6" opacity="0.5"/>
  <!-- Barra 6 -->
  <rect x="70" y="28" width="8" height="27" rx="4" fill="#7c3aed" opacity="0.6"/>
  <!-- Barra 7 -->
  <rect x="82" y="22" width="8" height="33" rx="4" fill="#ddd6fe" opacity="0.7"/>
  <!-- Barra 8 -->
  <rect x="94" y="18" width="8" height="37" rx="4" fill="#c4b5fd" opacity="0.8"/>
  <!-- Barra 9 -->
  <rect x="106" y="32" width="8" height="23" rx="4" fill="#e0e7ff" opacity="0.6"/>
  <!-- Barra 10 -->
  <rect x="118" y="26" width="8" height="29" rx="4" fill="#a78bfa" opacity="0.7"/>
  <!-- Barra 11 -->
  <rect x="130" y="24" width="8" height="31" rx="4" fill="#ddd6fe" opacity="0.6"/>
  <!-- Barra 12 -->
  <rect x="142" y="19" width="8" height="36" rx="4" fill="#c4b5fd" opacity="0.8"/>
  <!-- Barra 13 -->
  <rect x="154" y="33" width="8" height="22" rx="4" fill="#e0e7ff" opacity="0.7"/>
  <!-- Barra 14 -->
  <rect x="166" y="29" width="8" height="26" rx="4" fill="#8b5cf6" opacity="0.5"/>
  
  <!-- Puntos decorativos sutiles -->
  <circle cx="15" cy="12" r="1.5" fill="#c4b5fd" opacity="0.4"/>
  <circle cx="35" cy="8" r="1" fill="#ddd6fe" opacity="0.5"/>
  <circle cx="55" cy="6" r="1.5" fill="#a78bfa" opacity="0.3"/>
  <circle cx="95" cy="10" r="1" fill="#e0e7ff" opacity="0.6"/>
  <circle cx="125" cy="7" r="1.5" fill="#c4b5fd" opacity="0.4"/>
  <circle cx="155" cy="11" r="1" fill="#ddd6fe" opacity="0.5"/>
</svg>